HIERARCHY
ROOT Hips
{
	OFFSET 0.000000 0.000000 0.000000
	CHANNELS 6 Xposition Yposition Zposition Zrotation Yrotation Xrotation 
	JOINT LHipJoint
	{
		OFFSET 0.000000 0.000000 0.000000
		CHANNELS 3 Zrotation Yrotation Xrotation
		JOINT LeftUpLeg
		{
			OFFSET 1.363060 -1.794630 0.839290
			CHANNELS 3 Zrotation Yrotation Xrotation
			JOINT LeftLeg
			{
				OFFSET 2.448110 -6.726130 0.000000
				CHANNELS 3 Zrotation Yrotation Xrotation
				JOINT LeftFoot
				{
					OFFSET 2.562200 -7.039590 0.000000
					CHANNELS 3 Zrotation Yrotation Xrotation
					JOINT LeftToeBase
					{
						OFFSET 0.157640 -0.433110 2.322550
						CHANNELS 3 Zrotation Yrotation Xrotation
						End Site
						{
							OFFSET 0.000000 0.000000 0.000000
						}
					}
				}
			}
		}
	}
	JOINT RHipJoint
	{
		OFFSET 0.000000 0.000000 0.000000
		CHANNELS 3 Zrotation Yrotation Xrotation
		JOINT RightUpLeg
		{
			OFFSET -1.305520 -1.794630 0.839290
			CHANNELS 3 Zrotation Yrotation Xrotation
			JOINT RightLeg
			{
				OFFSET -2.542530 -6.985550 0.000000
				CHANNELS 3 Zrotation Yrotation Xrotation
				JOINT RightFoot
				{
					OFFSET -2.568260 -7.056230 0.000000
					CHANNELS 3 Zrotation Yrotation Xrotation
					JOINT RightToeBase
					{
						OFFSET -0.164730 -0.452590 2.363150
						CHANNELS 3 Zrotation Yrotation Xrotation
						End Site
						{
							OFFSET 0.000000 0.000000 0.000000
						}
					}
				}
			}
		}
	}
	JOINT LowerBack
	{
		OFFSET 0.000000 0.000000 0.000000
		CHANNELS 3 Zrotation Yrotation Xrotation
		JOINT Spine
		{
			OFFSET 0.028270 2.035590 -0.193380
			CHANNELS 3 Zrotation Yrotation Xrotation
			JOINT Spine1
			{
				OFFSET 0.056720 2.048850 -0.042750
				CHANNELS 3 Zrotation Yrotation Xrotation
				JOINT Neck
				{
					OFFSET 0.000000 0.000000 0.000000
					CHANNELS 3 Zrotation Yrotation Xrotation
					JOINT Neck1
					{
						OFFSET -0.054170 1.746240 0.172020
						CHANNELS 3 Zrotation Yrotation Xrotation
						JOINT Head
						{
							OFFSET 0.104070 1.761360 -0.123970
							CHANNELS 3 Zrotation Yrotation Xrotation
							End Site
							{
								OFFSET 0.000000 0.000000 0.000000
							}
						}
					}
				}
				JOINT LeftShoulder
				{
					OFFSET 0.000000 0.000000 0.000000
					CHANNELS 3 Zrotation Yrotation Xrotation
					JOINT LeftArm
					{
						OFFSET 3.362410 1.200890 -0.311210
						CHANNELS 3 Zrotation Yrotation Xrotation
						JOINT LeftForeArm
						{
							OFFSET 4.983000 -0.000000 -0.000000
							CHANNELS 3 Zrotation Yrotation Xrotation
							JOINT LeftHand
							{
								OFFSET 3.483560 -0.000000 -0.000000
								CHANNELS 3 Zrotation Yrotation Xrotation
								JOINT LeftFingerBase
								{
									OFFSET 0.000000 0.000000 0.000000
									CHANNELS 3 Zrotation Yrotation Xrotation
									JOINT LeftHandIndex1
									{
										OFFSET 0.715260 -0.000000 -0.000000
										CHANNELS 3 Zrotation Yrotation Xrotation
										End Site
										{
											OFFSET 0.000000 0.000000 0.000000
										}
									}
								}
								JOINT LThumb
								{
									OFFSET 0.000000 0.000000 0.000000
									CHANNELS 3 Zrotation Yrotation Xrotation
									End Site
									{
										OFFSET 0.000000 0.000000 0.000000
									}
								}
							}
						}
					}
				}
				JOINT RightShoulder
				{
					OFFSET 0.000000 0.000000 0.000000
					CHANNELS 3 Zrotation Yrotation Xrotation
					JOINT RightArm
					{
						OFFSET -3.136600 1.374050 -0.404650
						CHANNELS 3 Zrotation Yrotation Xrotation
						JOINT RightForeArm
						{
							OFFSET -5.241900 -0.000000 -0.000000
							CHANNELS 3 Zrotation Yrotation Xrotation
							JOINT RightHand
							{
								OFFSET -3.444170 -0.000000 -0.000000
								CHANNELS 3 Zrotation Yrotation Xrotation
								JOINT RightFingerBase
								{
									OFFSET 0.000000 0.000000 0.000000
									CHANNELS 3 Zrotation Yrotation Xrotation
									JOINT RightHandIndex1
									{
										OFFSET -0.622530 -0.000000 -0.000000
										CHANNELS 3 Zrotation Yrotation Xrotation
										End Site
										{
											OFFSET 0.000000 0.000000 0.000000
										}
									}
								}
								JOINT RThumb
								{
									OFFSET 0.000000 0.000000 0.000000
									CHANNELS 3 Zrotation Yrotation Xrotation
									End Site
									{
										OFFSET 0.000000 0.000000 0.000000
									}
								}
							}
						}
					}
				}
			}
		}
	}
}
MOTION
Frames: 8
Frame Time: 0.008333
0.070013 17.602595 7.221685 3.555717 5.594814 2.734614 -1.911691 0.418904 1.272504 -22.875844 -8.444184 -17.687624 2.571265 12.284557 37.483604 3.225192 -7.739916 3.116514 0.015000 0.790400 2.172300 -0.838986 -1.430959 1.094285 13.419603 -0.565854 -19.322947 -18.804862 -19.674057 84.441865 1.838977 -11.515696 14.502593 -0.015700 0.808100 -2.220900 -2.750998 2.935294 12.056280 0.105089 3.301303 -2.242694 1.477821 1.927724 -3.410340 -7.085479 -4.827146 -18.183530 6.702944 -4.898233 4.908649 4.045500 -2.064400 8.416800 -1.946842 2.678688 -2.504091 -78.533767 13.556915 46.323565 136.632180 -53.874239 -100.191231 -0.725668 -1.518849 -30.355360 21.251694 10.726331 4.806900 -7.125000 0.000000 0.000000 -4.082000 42.512800 0.251000 -0.777513 -1.292092 -1.435372 87.939182 -12.868758 34.271494 -133.206993 52.294257 -99.609075 1.125156 -0.974828 -16.019832 -8.632833 20.186801 -3.472500 7.125000 0.000000 0.000000 12.179600 -8.699300 10.442500
0.066086 17.570729 7.366698 3.763571 5.416619 2.810989 -1.890903 0.445009 1.312906 -23.180882 -8.438132 -17.260831 2.645743 12.321498 37.668609 3.158946 -7.432686 2.381714 0.013288 0.741137 2.036769 -0.875915 -1.407634 1.053846 13.057957 -0.314765 -20.255449 -19.010932 -19.749255 85.052556 1.831437 -11.410038 14.295379 -0.016828 0.835922 -2.297479 -3.014382 2.939967 12.045087 0.074982 3.270732 -2.232768 1.486188 1.905469 -3.369033 -7.070114 -4.830472 -18.204482 6.752534 -4.908330 4.894238 4.064061 -2.060898 8.412520 -1.964054 2.674896 -2.491927 -78.648938 12.993102 46.319932 136.440978 -53.962133 -100.072594 -0.714073 -1.523704 -30.540747 21.177236 10.705218 4.782463 -7.125000 0.000000 0.000000 -4.150485 42.488830 0.257732 -0.783427 -1.299278 -1.430892 88.148972 -13.188412 34.306062 -133.046021 52.384735 -99.493073 1.123143 -0.977733 -15.884914 -8.619305 20.221204 -3.472850 7.125000 0.000000 0.000000 12.188277 -8.666419 10.458454
0.062159 17.538862 7.511712 3.971425 5.238423 2.887364 -1.870116 0.471115 1.353308 -23.485921 -8.432079 -16.834037 2.720221 12.358439 37.853613 3.092700 -7.125456 1.646915 0.011576 0.691874 1.901238 -0.912844 -1.384309 1.013406 12.696310 -0.063676 -21.187952 -19.217003 -19.824454 85.663248 1.823896 -11.304381 14.088165 -0.017957 0.863744 -2.374058 -3.277766 2.944639 12.033895 0.044875 3.240160 -2.222841 1.494556 1.883214 -3.327726 -7.054749 -4.833798 -18.225434 6.802125 -4.918426 4.879828 4.082622 -2.057396 8.408239 -1.981267 2.671105 -2.479762 -78.764109 12.429290 46.316299 136.249776 -54.050026 -99.953956 -0.702478 -1.528558 -30.726133 21.102777 10.684105 4.758026 -7.125000 0.000000 0.000000 -4.218971 42.464860 0.264464 -0.789342 -1.306463 -1.426411 88.358762 -13.508066 34.340631 -132.885050 52.475212 -99.377072 1.121130 -0.980638 -15.749997 -8.605777 20.255606 -3.473200 7.125000 0.000000 0.000000 12.196955 -8.633538 10.474408
0.058989 17.510832 7.656567 4.081257 5.107742 2.965422 -1.851564 0.498810 1.396292 -23.661965 -8.432236 -16.423554 2.786873 12.390409 38.019987 3.059672 -6.933028 0.995218 0.009997 0.643432 1.768033 -0.945702 -1.361334 0.978349 12.466851 0.151191 -22.106475 -19.390285 -19.892551 86.181883 1.833232 -11.234950 13.799085 -0.019805 0.905859 -2.489918 -3.398268 2.920081 12.056930 0.018648 3.188742 -2.227822 1.436661 1.854034 -3.360208 -7.028242 -4.826167 -18.179834 6.853468 -4.919389 4.827608 4.105953 -2.049793 8.373482 -2.000702 2.663525 -2.470795 -78.845806 11.937401 46.311573 136.051966 -54.142385 -99.831904 -0.693774 -1.535025 -30.848319 21.085478 10.683026 4.756133 -7.125000 0.000000 0.000000 -4.237314 42.469844 0.265087 -0.799866 -1.304662 -1.419410 88.599178 -13.899359 34.382487 -132.785803 52.527264 -99.305139 1.115525 -0.981768 -15.613601 -8.565038 20.224670 -3.452044 7.125000 0.000000 0.000000 12.224092 -8.670047 10.489609
0.056821 17.487883 7.801212 4.061211 5.040018 3.045707 -1.835975 0.528613 1.442698 -23.667092 -8.440620 -16.034683 2.843153 12.415790 38.161674 3.070659 -6.892713 0.453632 0.008597 0.596076 1.637911 -0.973166 -1.338823 0.950424 12.412539 0.318063 -23.006477 -19.520123 -19.951238 86.578543 1.864929 -11.213521 13.401535 -0.022607 0.966913 -2.657823 -3.329450 2.856791 12.125318 -0.002437 3.109701 -2.252554 1.290971 1.815678 -3.490460 -6.986972 -4.804020 -18.046052 6.907135 -4.908248 4.725291 4.135604 -2.036758 8.298343 -2.023083 2.650926 -2.466064 -78.883149 11.540813 46.305399 135.845401 -54.240661 -99.705326 -0.688901 -1.543629 -30.886764 21.143915 10.708492 4.784111 -7.125000 0.000000 0.000000 -4.189218 42.513192 0.257615 -0.816498 -1.290953 -1.409070 88.880174 -14.385571 34.433999 -132.768343 52.528400 -99.291598 1.105161 -0.980547 -15.475246 -8.488245 20.107159 -3.402392 7.125000 0.000000 0.000000 12.275690 -8.798496 10.503812
0.054653 17.464935 7.945858 4.041164 4.972294 3.125993 -1.820386 0.558416 1.489103 -23.672219 -8.449004 -15.645811 2.899434 12.441171 38.303361 3.081645 -6.852397 -0.087954 0.007196 0.548720 1.507789 -1.000630 -1.316312 0.922499 12.358227 0.484935 -23.906478 -19.649961 -20.009925 86.975203 1.896626 -11.192091 13.003984 -0.025408 1.027966 -2.825729 -3.260632 2.793502 12.193705 -0.023522 3.030660 -2.277287 1.145280 1.777323 -3.620712 -6.945702 -4.781872 -17.912271 6.960801 -4.897108 4.622974 4.165255 -2.023722 8.223203 -2.045464 2.638326 -2.461332 -78.920492 11.144225 46.299224 135.638835 -54.338937 -99.578749 -0.684027 -1.552232 -30.925209 21.202352 10.733957 4.812089 -7.125000 0.000000 0.000000 -4.141123 42.556541 0.250144 -0.833131 -1.277244 -1.398729 89.161170 -14.871784 34.485511 -132.750883 52.529537 -99.278057 1.094797 -0.979326 -15.336891 -8.411452 19.989648 -3.352741 7.125000 0.000000 0.000000 12.327287 -8.926945 10.518015
0.053611 17.448285 8.090010 3.881619 5.067428 3.225882 -1.809308 0.592342 1.538154 -23.495729 -8.540440 -15.276306 2.946248 12.460375 38.419016 3.103445 -6.845594 -0.524310 0.005126 0.279573 0.768228 -1.024049 -1.296087 0.903841 12.479511 0.527237 -24.865345 -19.728834 -20.062674 87.231264 1.932852 -11.171836 12.543552 -0.025298 1.026324 -2.821250 -2.989167 2.643788 12.295361 -0.033442 2.864970 -2.335597 0.926183 1.698817 -3.867686 -6.875224 -4.749934 -17.813866 7.015128 -4.884313 4.631155 4.191325 -2.011356 8.227328 -2.070828 2.616743 -2.472530 -78.945239 10.940620 46.248485 135.479074 -54.411487 -99.486022 -0.680584 -1.561683 -30.831955 21.272986 10.811958 4.865607 -7.125000 0.000000 0.000000 -4.090818 42.660675 0.236782 -0.850674 -1.250009 -1.396078 89.430344 -15.496132 34.645871 -132.791948 52.490777 -99.304895 1.086117 -0.977896 -15.255072 -8.344211 19.874689 -3.307942 7.125000 0.000000 0.000000 12.373027 -9.050808 10.527498
0.052752 17.432659 8.234083 3.699405 5.189026 3.328956 -1.798963 0.626938 1.587634 -23.289727 -8.645373 -14.909948 2.991524 12.478574 38.530441 3.127003 -6.844236 -0.943566 0.002946 -0.025615 -0.070368 -1.046811 -1.276233 0.886687 12.629329 0.549297 -25.833777 -19.799425 -20.114457 87.464477 1.969814 -11.151771 12.072902 -0.024714 1.014495 -2.788759 -2.684772 2.480031 12.402423 -0.041548 2.685201 -2.399363 0.695156 1.613788 -4.133627 -6.800000 -4.716406 -17.721209 7.069562 -4.871248 4.657292 4.216812 -1.999099 8.244332 -2.096675 2.593700 -2.486316 -78.967940 10.768375 46.190503 135.326920 -54.479857 -99.398795 -0.677374 -1.571271 -30.717301 21.345601 10.898495 4.923274 -7.125000 0.000000 0.000000 -4.040155 42.774688 0.222462 -0.868366 -1.220576 -1.394675 89.697597 -16.142927 34.823919 -132.842524 52.445533 -99.338295 1.077710 -0.976433 -15.182440 -8.278522 19.760144 -3.263933 7.125000 0.000000 0.000000 12.417815 -9.173926 10.536214
